<?xml version="1.0" standalone="no"?>
<!DOCTYPE svg PUBLIC "-//W3C//DTD SVG 20010904//EN"
 "http://www.w3.org/TR/2001/REC-SVG-20010904/DTD/svg10.dtd">
<svg version="1.0" xmlns="http://www.w3.org/2000/svg"
 width="700.000000pt" height="700.000000pt" viewBox="0 0 700.000000 700.000000"
 preserveAspectRatio="xMidYMid meet">
<metadata>
Created by potrace 1.11, written by Peter Selinger 2001-2013
</metadata>
<g transform="translate(0.000000,700.000000) scale(0.100000,-0.100000)"
fill="#000000" stroke="none">
<path d="M3307 6984 c-1 -1 -73 -4 -159 -8 -87 -4 -163 -8 -170 -11 -7 -2 -40
-6 -73 -9 -84 -7 -282 -41 -400 -70 -968 -236 -1723 -926 -2123 -1941 -36 -91
-120 -338 -127 -375 -2 -8 -10 -42 -19 -75 -22 -88 -53 -240 -65 -320 -23
-156 -26 -208 -25 -390 0 -163 3 -201 22 -267 82 -292 348 -483 819 -588 133
-30 273 -53 393 -65 36 -4 82 -8 102 -11 94 -11 360 -26 692 -39 72 -3 132 -8
135 -11 14 -14 4 -492 -14 -669 -12 -121 -38 -324 -52 -400 -7 -44 -10 -65
-18 -120 -10 -79 -71 -361 -115 -537 -48 -191 -54 -222 -54 -308 0 -186 51
-316 169 -435 92 -93 168 -143 302 -199 61 -25 214 -73 263 -82 14 -3 30 -6
37 -9 6 -2 56 -12 110 -22 86 -16 159 -18 598 -18 564 0 596 2 814 51 304 69
491 201 574 404 44 109 47 128 51 272 4 127 -6 189 -74 465 -72 293 -109 461
-135 618 -2 17 -7 41 -9 55 -3 14 -7 41 -10 60 -3 19 -12 85 -20 145 -23 165
-26 191 -33 300 -10 135 -7 445 4 456 4 4 33 11 63 14 30 3 93 10 140 16 136
15 222 22 420 34 216 13 258 16 315 21 76 6 138 13 195 20 25 4 56 8 70 9 38
4 87 14 185 37 282 65 496 198 624 386 87 129 113 226 116 437 1 83 -2 166 -6
185 -4 19 -10 60 -13 90 -9 96 -50 279 -98 435 -137 448 -400 926 -706 1284
-54 63 -287 299 -347 352 -334 290 -702 502 -1130 647 -96 33 -345 99 -404
108 -20 3 -43 7 -51 9 -8 3 -33 7 -55 10 -22 4 -51 8 -65 11 -64 11 -79 13
-145 20 -38 4 -79 8 -90 10 -50 6 -403 22 -408 18z"/>
</g>
</svg>
